<?xml version="1.0" encoding="UTF-8"?>
<!DOCTYPE svg PUBLIC "-//W3C//DTD SVG 1.1//EN" "http://www.w3.org/Graphics/SVG/1.1/DTD/svg11.dtd">
<!-- Creator: CorelDRAW -->
<svg xmlns="http://www.w3.org/2000/svg" xml:space="preserve" width="297mm" height="210mm" version="1.1" style="shape-rendering:geometricPrecision; text-rendering:geometricPrecision; image-rendering:optimizeQuality; fill-rule:evenodd; clip-rule:evenodd"
viewBox="0 0 29700 21000"
 xmlns:xlink="http://www.w3.org/1999/xlink"
 xmlns:xodm="http://www.corel.com/coreldraw/odm/2003">
 <defs>
  <style type="text/css">
   <![CDATA[
    .fil0 {fill:white}
   ]]>
  </style>
 </defs>
 <g id="Camada_x0020_1">
  <metadata id="CorelCorpID_0Corel-Layer"/>
  <g id="_2972777924784">
   <path class="fil0" d="M4874.18 8314.25c-906.97,413.37 -1653.83,1011.6 -2210.46,1829.05 -375.33,552.05 -137.96,6184.47 -80.09,6468.86 166.25,813.12 298.6,1297.16 1258.79,1324.93l323.98 -7.62 0 -267.08c0,-302.92 214.25,-551.47 477.51,-551.47l3352.92 0c262.3,0 477.52,248.55 477.52,551.47l0 166.97 12524.92 -162.06 500.64 0.58 0 -7.1c0,-303.51 214.69,-551.47 477.51,-551.47l3352.92 0c257.58,0 469.5,238.21 477.51,533.51 1241.29,-250.15 1270.03,-914.78 1205.51,-4367.3 -31.07,-1642.52 381.92,-2997.29 -724.77,-3761.97l-2019.72 -1395.59c269.86,-8.2 493.99,-193.12 764.75,-197.45 777.01,-14.66 1606.8,149.01 2390.85,62.52 939.98,-105.47 857.04,-2067.78 -145.52,-2092.25 -824.1,-20.16 -1658.08,-207.21 -2472.3,-61.49 -719.08,129.43 -874.48,2023.21 -1163.65,1435.31 -656.88,-1333.59 -1038.8,-3190.41 -1713.63,-4494.03 -316.95,-612.44 -912.21,-1324.93 -1522.97,-1441.32 -934.74,-177.81 -1756.06,-29.9 -2991.21,-27.19 -2681.45,5.49 -5709.42,-135.96 -8348.88,-15.76 -1196.14,53.87 -2248.18,3268.18 -3173.04,5643.79 -31.58,80.54 -164.38,129.44 -195.9,213.79 -478.03,-928.99 -748.79,-1224.81 -1027.56,-1318.41 -818.93,-261 -1737.66,-207.72 -2471.85,206.69 -822.68,464.47 -769,1621.33 0,1677.33l2712.52 197.39c217.08,87.07 166.7,238.79 -36.3,407.37zm3874.22 4863.93c481.32,2.13 226.52,-1071.99 -276.38,-1290.63 -1014.38,-442.18 -2218.98,-496.57 -3195.19,-318.75 -525.57,95.72 -318.36,1591.94 223.67,1594.14l3247.9 15.24zm12341.3 47.86c-481.26,1.62 -226.97,-1072.58 275.99,-1291.21 1014.84,-442.12 2219.43,-496.5 3195.13,-318.69 526.02,95.72 318.81,1591.95 -223.22,1594.08l-3247.9 15.82zm-9545.92 -51.15l559.41 2606.26 5213.56 0 827.4 -2606.26 -6600.37 0zm12196.23 1916.63c277.41,0 502.51,259.98 502.51,580.86 0,320.88 -225.1,580.86 -502.51,580.86 -277.8,0 -502.89,-259.98 -502.89,-580.86 0,-320.88 225.09,-580.86 502.89,-580.86zm-17407.85 -108.76c277.8,0 502.9,259.97 502.9,580.85 0,320.3 -225.1,580.28 -502.9,580.28 -277.41,0 -502.51,-259.98 -502.51,-580.28 0,-320.88 225.1,-580.85 502.51,-580.85zm337.61 -7502.82l16085.12 -26.61c-1099.13,-2618.79 -1542.73,-5115.19 -2379.55,-5120.03l-10722.3 -70.21c-1158.93,-7.62 -2063.57,3043.02 -2983.27,5216.85z"/>
   <path class="fil0" d="M4610.26 16811.68l3390.58 0c253.32,-0.06 458.65,247.06 458.65,551.73l-0.06 1849.07c0.06,304.61 -205.27,551.73 -458.53,551.73l-3390.64 0.06c-253.19,-0.06 -458.52,-247.18 -458.52,-551.85l-0.07 -1848.95c0.07,-304.73 205.4,-551.85 458.66,-551.85z"/>
   <path class="fil0" d="M21944.03 16809.87l3390.57 0c253.26,-0.06 458.59,247.06 458.59,551.73l0 1849.07c0,304.61 -205.33,551.73 -458.59,551.73l-3390.57 0.06c-253.26,-0.06 -458.59,-247.18 -458.59,-551.85l0 -1848.95c0,-304.73 205.33,-551.85 458.59,-551.85z"/>
  </g>
 </g>
</svg>
