<?xml version="1.0" encoding="UTF-8"?>
<!DOCTYPE svg PUBLIC "-//W3C//DTD SVG 1.1//EN" "http://www.w3.org/Graphics/SVG/1.1/DTD/svg11.dtd">
<!-- Creator: CorelDRAW -->
<svg xmlns="http://www.w3.org/2000/svg" xml:space="preserve" width="297mm" height="210mm" version="1.1" style="shape-rendering:geometricPrecision; text-rendering:geometricPrecision; image-rendering:optimizeQuality; fill-rule:evenodd; clip-rule:evenodd"
viewBox="0 0 29700 21000"
 xmlns:xlink="http://www.w3.org/1999/xlink"
 xmlns:xodm="http://www.corel.com/coreldraw/odm/2003">
 <defs>
  <style type="text/css">
   <![CDATA[
    .fil0 {fill:white}
   ]]>
  </style>
 </defs>
 <g id="Camada_x0020_1">
  <metadata id="CorelCorpID_0Corel-Layer"/>
  <g id="_105553144352896">
   <g id="_2972608760544">
    <polygon class="fil0" points="2080.22,15047.75 27463.74,15208.45 23047.39,20473.37 7182.5,20433.07 "/>
    <path class="fil0" d="M13697 688.33l726.54 0c220.81,0 399.83,167.8 399.83,374.73l-0.06 14124.59c0.06,206.86 -178.96,374.67 -399.71,374.67l-726.6 0.06c-220.69,-0.06 -399.71,-167.87 -399.71,-374.79l-0.06 -14124.53c0.06,-206.93 179.08,-374.73 399.83,-374.73z"/>
    <polygon class="fil0" points="3280.28,14269.14 12195.46,5362.74 12441.63,14288.63 "/>
    <path class="fil0" d="M15359.12 14280.72c2913.82,-4636.92 2580.26,-9210.24 -12.33,-13739.83 7500.84,3439.04 11883.12,7915.06 12271.92,13718.84 -4086.46,7.04 -8173.12,13.89 -12259.59,20.99z"/>
   </g>
  </g>
 </g>
</svg>
