<?xml version="1.0" encoding="UTF-8"?>
<!DOCTYPE svg PUBLIC "-//W3C//DTD SVG 1.1//EN" "http://www.w3.org/Graphics/SVG/1.1/DTD/svg11.dtd">
<!-- Creator: CorelDRAW -->
<svg xmlns="http://www.w3.org/2000/svg" xml:space="preserve" width="297mm" height="210mm" version="1.1" style="shape-rendering:geometricPrecision; text-rendering:geometricPrecision; image-rendering:optimizeQuality; fill-rule:evenodd; clip-rule:evenodd"
viewBox="0 0 29700 21000"
 xmlns:xlink="http://www.w3.org/1999/xlink"
 xmlns:xodm="http://www.corel.com/coreldraw/odm/2003">
 <defs>
  <style type="text/css">
   <![CDATA[
    .str0 {stroke:white;stroke-width:20;stroke-miterlimit:22.9256}
    .fil0 {fill:white}
   ]]>
  </style>
 </defs>
 <g id="Camada_x0020_1">
  <metadata id="CorelCorpID_0Corel-Layer"/>
  <g id="_105553144937888">
   <g id="_2972777931648">
    <path class="fil0 str0" d="M4835.75 17626.99c5.38,39.9 8.01,80.62 8.01,121.93l0 1956.45c0,478.12 -361.44,869.37 -803.16,869.37l-765 0c-441.72,0 -803.09,-391.25 -803.09,-869.37l0 -1956.45c0,-41.31 2.63,-82.03 7.94,-121.93l-960.08 0c-256.46,0 -466.22,-227.05 -466.22,-504.64l0 -1860.62 0 -612.04 0 -6782.04c0,-1165.54 880.81,-2118.96 1957.52,-2118.96l0.2 0c1076.71,0 1957.52,953.42 1957.52,2118.96l0 6782.04 19746.27 0 0 -6786.75c0,-1165.54 880.75,-2118.89 1957.52,-2118.89l0.14 0c1076.77,0 1957.58,953.35 1957.58,2118.89l0 7394.08c0,570.86 149.8,2369.97 -534.92,2369.97l-804.43 0c7.8,48.18 11.77,97.78 11.77,148.45l0 1956.44c0,478.13 -361.37,869.38 -803.08,869.38l-765 0c-441.72,0 -803.16,-391.25 -803.16,-869.38l0 -1956.44c0,-50.67 3.97,-100.27 11.84,-148.45l-8955.91 0c3.63,34.12 5.79,68.7 5.79,103.9l0 1956.44c0,478.13 -361.37,869.38 -803.09,869.38l-765 0c-441.72,0 -803.16,-391.25 -803.16,-869.38l0 -1956.44c0,-35.2 2.15,-69.78 5.86,-103.9l-8792.66 0zm1008.81 -6665.22l18144.59 0c132.98,0 241.59,117.63 241.59,261.57l0 2261.96c0,143.94 -108.61,261.5 -241.59,261.5l-18144.59 0c-132.98,0 -241.66,-117.56 -241.66,-261.5l0 -2261.96c0,-143.94 108.68,-261.57 241.66,-261.57z"/>
    <path class="fil0 str0" d="M19430.31 413l1935.24 0c2390.9,0 4354.28,2082.49 4418.61,4654.47 -1028.05,59.89 -1851.87,988.75 -1851.87,2115.86l0 2799.78 -8922.4 0 0 -4785.22c0,-2631.74 1989.15,-4784.89 4420.42,-4784.89z"/>
    <path class="fil0 str0" d="M10145.66 443.08l-1935.18 0c-2390.96,0 -4354.33,2082.49 -4418.67,4654.54 1028.12,59.82 1851.94,988.75 1851.94,2115.86l0 2799.78 8922.4 0 0 -4785.29c0,-2631.68 -1989.22,-4784.89 -4420.49,-4784.89z"/>
   </g>
  </g>
 </g>
</svg>
