<?xml version="1.0" encoding="UTF-8"?>
<!DOCTYPE svg PUBLIC "-//W3C//DTD SVG 1.1//EN" "http://www.w3.org/Graphics/SVG/1.1/DTD/svg11.dtd">
<!-- Creator: CorelDRAW 2020 (64 Bit) -->
<svg xmlns="http://www.w3.org/2000/svg" xml:space="preserve" width="297mm" height="106.57mm" version="1.1" style="shape-rendering:geometricPrecision; text-rendering:geometricPrecision; image-rendering:optimizeQuality; fill-rule:evenodd; clip-rule:evenodd"
viewBox="0 0 29700 10657"
 xmlns:xlink="http://www.w3.org/1999/xlink"
 xmlns:xodm="http://www.corel.com/coreldraw/odm/2003">
 <defs>
  <style type="text/css">
   <![CDATA[
    .fil0 {fill:#FEFEFE}
    .fil1 {fill:#ED3237}
   ]]>
  </style>
 </defs>
 <g id="Camada_x0020_1">
  <metadata id="CorelCorpID_0Corel-Layer"/>
  <polygon class="fil0" points="6765.53,3143.2 11138.57,3172.73 10377.73,4140.44 7644.55,4133.03 "/>
  <rect class="fil0" x="8697.98" y="503.9" width="262.91" height="2733.89" rx="68.88" ry="68.88"/>
  <polygon class="fil0" points="6972.28,3000.09 8508.17,1363.07 8550.58,3003.67 "/>
  <path class="fil0" d="M9053.2 3002.21c501.98,-852.28 444.53,-1692.86 -2.13,-2525.41 1292.24,632.1 2047.21,1454.81 2114.2,2521.55 -704.01,1.3 -1408.06,2.56 -2112.07,3.86z"/>
  <path class="fil0" d="M19933.9 2188.03c-162.18,64 -295.73,156.62 -395.26,283.18 -67.11,85.47 -24.67,957.5 -14.31,1001.53 29.72,125.89 53.38,200.83 225.08,205.13l57.93 -1.18 0 -41.35c0,-46.9 38.31,-85.38 85.38,-85.38l599.54 0c46.9,0 85.38,38.48 85.38,85.38l0 25.85 2239.59 -25.09 89.51 0.09 0 -1.1c0,-46.99 38.4,-85.38 85.39,-85.38l599.53 0c46.06,0 83.96,36.88 85.39,82.6 221.96,-38.73 227.1,-141.63 215.56,-676.16 -5.56,-254.3 68.29,-464.05 -129.59,-582.44l-361.15 -216.07c48.25,-1.27 88.33,-29.9 136.75,-30.57 138.93,-2.27 287.3,23.07 427.5,9.68 168.07,-16.33 153.25,-320.14 -26.02,-323.93 -147.36,-3.12 -296.48,-32.08 -442.07,-9.52 -128.58,20.04 -156.37,313.24 -208.07,222.22 -117.47,-206.47 -185.76,-493.95 -306.42,-695.78 -56.67,-94.82 -163.11,-205.13 -272.32,-223.15 -167.15,-27.53 -314,-4.63 -534.87,-4.21 -479.46,0.85 -1020.89,-21.05 -1492.86,-2.44 -213.88,8.34 -401.99,505.99 -567.37,873.79 -5.64,12.47 -29.39,20.04 -35.03,33.1 -85.47,-143.83 -133.89,-189.63 -183.74,-204.12 -146.43,-40.41 -310.71,-32.16 -441.99,32 -147.1,71.91 -137.5,251.02 0,259.69l485.02 30.56c38.82,13.48 29.81,36.97 -6.48,63.07zm692.75 753.05c86.06,0.33 40.5,-165.97 -49.43,-199.82 -181.37,-68.46 -396.77,-76.88 -571.33,-49.35 -93.97,14.82 -56.92,246.47 40,246.81l580.76 2.36zm2206.75 7.41c-86.06,0.25 -40.59,-166.06 49.35,-199.91 181.46,-68.45 396.85,-76.87 571.32,-49.34 94.06,14.82 57.01,246.47 -39.91,246.8l-580.76 2.45zm-1706.91 -7.92l100.03 403.51 932.23 0 147.95 -403.51 -1180.21 0zm2180.81 296.74c49.6,0 89.85,40.25 89.85,89.93 0,49.68 -40.25,89.93 -89.85,89.93 -49.68,0 -89.93,-40.25 -89.93,-89.93 0,-49.68 40.25,-89.93 89.93,-89.93zm-3112.7 -16.84c49.68,0 89.93,40.25 89.93,89.93 0,49.59 -40.25,89.84 -89.93,89.84 -49.6,0 -89.85,-40.25 -89.85,-89.84 0,-49.68 40.25,-89.93 89.85,-89.93zm60.37 -1161.61l2876.18 -4.12c-196.53,-405.45 -275.86,-791.95 -425.49,-792.7l-1917.25 -10.87c-207.23,-1.18 -368.99,471.13 -533.44,807.69z"/>
  <g id="_2973691528272">
   <path class="fil0" d="M24734.99 6742.08l-461.21 1.12 3.17 707.43 473.87 2.26 2.96 3078.74 902.42 9.61 -0.12 -3092.44 890.27 3.8c20.58,-35.91 4.46,-15.41 25.93,-69.69l31.52 -77.45c2.55,-6.18 6.68,-18.58 11.77,-26.93 28.27,80.2 52.36,128.97 87.44,204.25 11.52,24.76 28.56,66.52 45.17,95.83l80.96 108.14c404.35,-169.85 598.54,-386.97 1203.8,-344.42 454.87,31.94 756.24,332.77 692.19,818.7 -577.41,12.53 -1315.4,-67.6 -1798.83,142.55 -436.03,189.56 -755.19,633.9 -640.25,1292.69 191.9,1099.75 1696.45,1330.14 2438.87,495.41l21.05 443.54 882.21 7.02c0,-614.91 -2.88,-1229.1 -5.55,-1842.17 -4.14,-957.91 107.47,-2182.25 -1591.82,-2154.45 -707.1,11.57 -936.41,192.07 -1446.51,420.59 -21.8,-296.58 84.59,-224.05 -911.19,-224.05 -50.69,-263.22 -36.45,-635.32 115.99,-778.29 243.97,-228.77 514.28,-40.5 792.61,-27.93l162.17 -779.79c-375.45,-93.24 -978.03,-344.47 -1521.46,134.82 -610.85,538.79 -391.73,1003.76 -487.43,1451.11zm3996.07 2071.1c-620.25,2.13 -1503,-141.34 -1597.83,360.17 -36.28,192.02 22.84,390.6 135.08,500.71 281.96,276.7 1555.4,323.21 1462.75,-860.88z"/>
   <path class="fil0" d="M21999.96 6570.97c-1100.12,150.06 -1804.8,1001.96 -1656.95,2287.72 125.43,1090.65 983.51,1856.2 2232.61,1702.67 2396.28,-294.57 2116.74,-4357.61 -575.66,-3990.39zm1.51 851.65c-1239.84,319.54 -924.39,2693.19 554.11,2308.05 1180.37,-307.43 937.41,-2692.48 -554.11,-2308.05z"/>
   <path class="fil0" d="M11046.53 10540.94l3616.53 0.76 -1.92 -868.27 -2679.29 -5.39 -5.3 -1293.31 2326.76 0.83 8.98 -870.77 -2333.15 0.54 -1.51 -1273.02 2602.84 -0.51 1.38 -867.97 -3508.73 -4.88c-98.78,301.58 -26.59,4494.27 -26.59,5181.99z"/>
   <path class="fil0" d="M52.59 10540.32l3616.62 1.42 -2.34 -868.06 -2683.26 -5.89 -0.75 -1292.35 2329.52 0.12 5.72 -870.14 -2333.69 0.12 -0.55 -1272.4 2606.43 -1.29 -3 -865.1 -3509.1 -7.68c-61.51,193.49 -25.6,4592.77 -25.6,5181.25z"/>
   <path class="fil0" d="M9050.04 9901.99c-74.37,-158.21 -332.82,-409.35 -462.17,-531.48 -161.63,78.41 -536.04,535.61 -1215.2,404.55 -425.47,-82.09 -767.14,-430.11 -811.65,-874.07l2686.43 1.63c140.75,-877.33 -178.16,-2037.66 -1217.83,-2292.07 -1721.63,-421.29 -2770.56,1174.53 -2311.27,2664.01 308.93,1001.96 1205.76,1446.89 2207.3,1268.93 458.42,-81.5 963.97,-368.93 1124.39,-641.5zm-2519.58 -1650.56l1903.25 -1c-51.98,-1277.21 -1751.4,-1267.02 -1903.25,1z"/>
   <path class="fil0" d="M15127.86 9366.17l-98.37 154.27c-23.05,48.06 -51.44,110.23 -80.67,170.36 -59.46,122.21 -117.83,229.14 -129.6,353.36 881.33,722.67 2367.76,727.52 2813.77,-75.41 341.38,-614.57 154.28,-1358.12 -677.78,-1681.96 -243.97,-94.95 -789.9,-249.68 -970.44,-373.15 -214.32,-146.51 -303.34,-642.8 416.87,-610.77 498.37,22.17 692.19,259.29 1022.59,340.21l301.62 -670.61c-347.64,-405.55 -1471.48,-555.91 -2073.48,-293.69 -610.44,265.88 -930.77,1126.8 -430.06,1750.52 182.04,226.76 482.58,349.52 841.46,465.72 309.73,100.29 794.94,187.81 830.35,517.99 64.3,599.63 -901.84,438.79 -1352.4,217.66 -188.01,-92.23 -272.77,-185.01 -413.86,-264.5z"/>
   <path class="fil0" d="M18345.18 5871.93l-10.56 872.07 -513.99 6.55 5.39 693.24 515.78 7.8c12.61,631.4 -94.82,2111.49 124.93,2577.04 309.31,655.24 1278.5,727.35 1874.61,262.25l-192.19 -707.35c-456.03,76.62 -913.49,516.54 -913.49,-565.3l1.26 -1559.62 1039.24 -9.4 10.94 -700.95 -1038.83 -8.19 -13.61 -1078.91 -890.27 -1.76 0.79 212.53z"/>
   <polygon class="fil0" points="4258.89,10540.65 5162.48,10541.61 5162.36,5047.51 4263.99,5047.42 "/>
   <rect class="fil0" x="19807.3" y="3550" width="770.27" height="457.13" rx="81.99" ry="85.43"/>
   <rect class="fil0" x="22906.76" y="3549.72" width="770.27" height="457.13" rx="81.99" ry="85.43"/>
  </g>
  <path class="fil1" d="M12926.18 3796.16c1.26,8.71 1.89,17.61 1.89,26.63l0 427.16c0,104.4 -85.42,189.81 -189.82,189.81l-180.79 0c-104.4,0 -189.82,-85.41 -189.82,-189.81l0 -427.16c0,-9.02 0.63,-17.92 1.89,-26.63l-226.91 0c-60.61,0 -110.19,-49.58 -110.19,-110.18l0 -406.26 0 -133.61 0 -1480.8c0,-254.48 208.17,-462.65 462.65,-462.65l0.04 0c254.48,0 462.64,208.17 462.64,462.65l0 1480.8 4666.82 0 0 -1481.82c0,-254.48 208.17,-462.65 462.65,-462.65l0.04 0c254.47,0 462.64,208.17 462.64,462.65l0 1614.41c0,124.64 35.41,517.46 -126.41,517.46l-190.13 0c1.85,10.52 2.8,21.35 2.8,32.41l0 427.17c0,104.4 -85.42,189.81 -189.82,189.81l-180.8 0c-104.4,0 -189.81,-85.41 -189.81,-189.81l0 -427.17c0,-11.06 0.94,-21.89 2.79,-32.41l-2116.63 0c0.86,7.45 1.37,15.01 1.37,22.69l0 427.16c0,104.4 -85.41,189.82 -189.81,189.82l-180.8 0c-104.4,0 -189.81,-85.42 -189.81,-189.82l0 -427.16c0,-7.68 0.51,-15.24 1.37,-22.69l-2078.04 0zm238.41 -1455.27l4288.29 0c31.43,0 57.1,25.67 57.1,57.1l0 493.87c0,31.43 -25.67,57.11 -57.1,57.11l-4288.29 0c-31.43,0 -57.1,-25.68 -57.1,-57.11l0 -493.87c0,-31.43 25.67,-57.1 57.1,-57.1z"/>
  <path class="fil1" d="M16375.45 37.66l457.37 0c565.08,0 1029.1,454.69 1044.3,1016.26 -242.98,13.08 -437.68,215.89 -437.68,461.98l0 611.31 -2108.72 0 0 -1044.81c0,-574.61 470.13,-1044.74 1044.73,-1044.74z"/>
  <path class="fil1" d="M14181.13 44.24l-457.37 0c-565.08,0 -1029.1,454.69 -1044.3,1016.26 242.98,13.07 437.68,215.88 437.68,461.98l0 611.3 2108.72 0 0 -1044.81c0,-574.6 -470.13,-1044.73 -1044.73,-1044.73z"/>
 </g>
</svg>
